<mxfile host="app.diagrams.net" agent="Mozilla/5.0 (Windows NT 10.0; Win64; x64) AppleWebKit/537.36 (KHTML, like Gecko) Chrome/131.0.0.0 Safari/537.36" version="24.8.6">
  <diagram name="Page-1" id="Zw4oEnmLLj-X5M-AR3wh">
    <mxGraphModel dx="317" dy="630" grid="1" gridSize="10" guides="1" tooltips="1" connect="1" arrows="1" fold="1" page="1" pageScale="1" pageWidth="850" pageHeight="1100" math="0" shadow="0">
      <root>
        <mxCell id="0" />
        <mxCell id="1" parent="0" />
        <mxCell id="jCQcz_GCoctiAkjDmrNC-15" style="edgeStyle=orthogonalEdgeStyle;rounded=0;orthogonalLoop=1;jettySize=auto;html=1;exitX=1;exitY=0.5;exitDx=0;exitDy=0;entryX=0;entryY=0.75;entryDx=0;entryDy=0;" edge="1" parent="1" source="jCQcz_GCoctiAkjDmrNC-1" target="jCQcz_GCoctiAkjDmrNC-6">
          <mxGeometry relative="1" as="geometry">
            <Array as="points">
              <mxPoint x="160" y="80" />
              <mxPoint x="160" y="153" />
            </Array>
          </mxGeometry>
        </mxCell>
        <mxCell id="jCQcz_GCoctiAkjDmrNC-24" style="edgeStyle=orthogonalEdgeStyle;rounded=0;orthogonalLoop=1;jettySize=auto;html=1;exitX=1;exitY=0.5;exitDx=0;exitDy=0;entryX=0;entryY=0.75;entryDx=0;entryDy=0;" edge="1" parent="1" source="jCQcz_GCoctiAkjDmrNC-1" target="jCQcz_GCoctiAkjDmrNC-16">
          <mxGeometry relative="1" as="geometry">
            <Array as="points">
              <mxPoint x="160" y="80" />
              <mxPoint x="160" y="255" />
            </Array>
          </mxGeometry>
        </mxCell>
        <mxCell id="jCQcz_GCoctiAkjDmrNC-28" style="edgeStyle=orthogonalEdgeStyle;rounded=0;orthogonalLoop=1;jettySize=auto;html=1;exitX=1;exitY=0.5;exitDx=0;exitDy=0;entryX=0;entryY=0.75;entryDx=0;entryDy=0;" edge="1" parent="1" source="jCQcz_GCoctiAkjDmrNC-1" target="jCQcz_GCoctiAkjDmrNC-26">
          <mxGeometry relative="1" as="geometry">
            <Array as="points">
              <mxPoint x="160" y="80" />
              <mxPoint x="160" y="355" />
            </Array>
          </mxGeometry>
        </mxCell>
        <mxCell id="jCQcz_GCoctiAkjDmrNC-39" style="edgeStyle=orthogonalEdgeStyle;rounded=0;orthogonalLoop=1;jettySize=auto;html=1;exitX=1;exitY=0.5;exitDx=0;exitDy=0;entryX=0;entryY=0.75;entryDx=0;entryDy=0;" edge="1" parent="1" source="jCQcz_GCoctiAkjDmrNC-1" target="jCQcz_GCoctiAkjDmrNC-31">
          <mxGeometry relative="1" as="geometry">
            <Array as="points">
              <mxPoint x="160" y="80" />
              <mxPoint x="160" y="470" />
            </Array>
          </mxGeometry>
        </mxCell>
        <mxCell id="jCQcz_GCoctiAkjDmrNC-1" value="Original image&lt;br&gt;(reference image)" style="shape=parallelogram;perimeter=parallelogramPerimeter;whiteSpace=wrap;html=1;fixedSize=1;" vertex="1" parent="1">
          <mxGeometry x="30" y="60" width="120" height="40" as="geometry" />
        </mxCell>
        <mxCell id="jCQcz_GCoctiAkjDmrNC-14" style="edgeStyle=orthogonalEdgeStyle;rounded=0;orthogonalLoop=1;jettySize=auto;html=1;exitX=1;exitY=0.5;exitDx=0;exitDy=0;entryX=0;entryY=0.25;entryDx=0;entryDy=0;" edge="1" parent="1" source="jCQcz_GCoctiAkjDmrNC-2" target="jCQcz_GCoctiAkjDmrNC-6">
          <mxGeometry relative="1" as="geometry">
            <Array as="points">
              <mxPoint x="180" y="30" />
              <mxPoint x="180" y="128" />
            </Array>
          </mxGeometry>
        </mxCell>
        <mxCell id="jCQcz_GCoctiAkjDmrNC-23" style="edgeStyle=orthogonalEdgeStyle;rounded=0;orthogonalLoop=1;jettySize=auto;html=1;exitX=1;exitY=0.5;exitDx=0;exitDy=0;entryX=0;entryY=0.25;entryDx=0;entryDy=0;" edge="1" parent="1" source="jCQcz_GCoctiAkjDmrNC-2" target="jCQcz_GCoctiAkjDmrNC-16">
          <mxGeometry relative="1" as="geometry">
            <Array as="points">
              <mxPoint x="180" y="30" />
              <mxPoint x="180" y="225" />
            </Array>
          </mxGeometry>
        </mxCell>
        <mxCell id="jCQcz_GCoctiAkjDmrNC-27" style="edgeStyle=orthogonalEdgeStyle;rounded=0;orthogonalLoop=1;jettySize=auto;html=1;exitX=1;exitY=0.5;exitDx=0;exitDy=0;entryX=0;entryY=0.25;entryDx=0;entryDy=0;" edge="1" parent="1" source="jCQcz_GCoctiAkjDmrNC-2" target="jCQcz_GCoctiAkjDmrNC-26">
          <mxGeometry relative="1" as="geometry">
            <Array as="points">
              <mxPoint x="180" y="30" />
              <mxPoint x="180" y="325" />
            </Array>
          </mxGeometry>
        </mxCell>
        <mxCell id="jCQcz_GCoctiAkjDmrNC-40" style="edgeStyle=orthogonalEdgeStyle;rounded=0;orthogonalLoop=1;jettySize=auto;html=1;exitX=1;exitY=0.5;exitDx=0;exitDy=0;entryX=0;entryY=0.25;entryDx=0;entryDy=0;" edge="1" parent="1" source="jCQcz_GCoctiAkjDmrNC-2" target="jCQcz_GCoctiAkjDmrNC-31">
          <mxGeometry relative="1" as="geometry">
            <Array as="points">
              <mxPoint x="180" y="30" />
              <mxPoint x="180" y="430" />
            </Array>
          </mxGeometry>
        </mxCell>
        <mxCell id="jCQcz_GCoctiAkjDmrNC-2" value="Enhanced image" style="shape=parallelogram;perimeter=parallelogramPerimeter;whiteSpace=wrap;html=1;fixedSize=1;" vertex="1" parent="1">
          <mxGeometry x="30" y="10" width="120" height="40" as="geometry" />
        </mxCell>
        <mxCell id="jCQcz_GCoctiAkjDmrNC-13" style="edgeStyle=orthogonalEdgeStyle;rounded=0;orthogonalLoop=1;jettySize=auto;html=1;exitX=1;exitY=0.5;exitDx=0;exitDy=0;entryX=0;entryY=0.5;entryDx=0;entryDy=0;" edge="1" parent="1" source="jCQcz_GCoctiAkjDmrNC-5" target="jCQcz_GCoctiAkjDmrNC-6">
          <mxGeometry relative="1" as="geometry">
            <Array as="points">
              <mxPoint x="140" y="290" />
              <mxPoint x="140" y="140" />
            </Array>
          </mxGeometry>
        </mxCell>
        <mxCell id="jCQcz_GCoctiAkjDmrNC-25" style="edgeStyle=orthogonalEdgeStyle;rounded=0;orthogonalLoop=1;jettySize=auto;html=1;exitX=1;exitY=0.5;exitDx=0;exitDy=0;entryX=0;entryY=0.5;entryDx=0;entryDy=0;" edge="1" parent="1" source="jCQcz_GCoctiAkjDmrNC-5" target="jCQcz_GCoctiAkjDmrNC-16">
          <mxGeometry relative="1" as="geometry">
            <Array as="points">
              <mxPoint x="140" y="290" />
              <mxPoint x="140" y="240" />
            </Array>
          </mxGeometry>
        </mxCell>
        <mxCell id="jCQcz_GCoctiAkjDmrNC-29" style="edgeStyle=orthogonalEdgeStyle;rounded=0;orthogonalLoop=1;jettySize=auto;html=1;exitX=1;exitY=0.5;exitDx=0;exitDy=0;entryX=0;entryY=0.5;entryDx=0;entryDy=0;" edge="1" parent="1" source="jCQcz_GCoctiAkjDmrNC-5" target="jCQcz_GCoctiAkjDmrNC-26">
          <mxGeometry relative="1" as="geometry">
            <Array as="points">
              <mxPoint x="140" y="290" />
              <mxPoint x="140" y="340" />
            </Array>
          </mxGeometry>
        </mxCell>
        <mxCell id="jCQcz_GCoctiAkjDmrNC-38" style="edgeStyle=orthogonalEdgeStyle;rounded=0;orthogonalLoop=1;jettySize=auto;html=1;exitX=1;exitY=0.5;exitDx=0;exitDy=0;entryX=0;entryY=0.5;entryDx=0;entryDy=0;" edge="1" parent="1" source="jCQcz_GCoctiAkjDmrNC-5" target="jCQcz_GCoctiAkjDmrNC-31">
          <mxGeometry relative="1" as="geometry">
            <Array as="points">
              <mxPoint x="140" y="290" />
              <mxPoint x="140" y="450" />
            </Array>
          </mxGeometry>
        </mxCell>
        <mxCell id="jCQcz_GCoctiAkjDmrNC-5" value="&lt;b&gt;&lt;font style=&quot;font-size: 16px;&quot;&gt;Start&lt;/font&gt;&lt;/b&gt;" style="rounded=1;whiteSpace=wrap;html=1;" vertex="1" parent="1">
          <mxGeometry x="40" y="270" width="60" height="40" as="geometry" />
        </mxCell>
        <mxCell id="jCQcz_GCoctiAkjDmrNC-8" value="" style="edgeStyle=orthogonalEdgeStyle;rounded=0;orthogonalLoop=1;jettySize=auto;html=1;" edge="1" parent="1" source="jCQcz_GCoctiAkjDmrNC-6" target="jCQcz_GCoctiAkjDmrNC-7">
          <mxGeometry relative="1" as="geometry" />
        </mxCell>
        <mxCell id="jCQcz_GCoctiAkjDmrNC-6" value="Images are converted into grayscale" style="rounded=0;whiteSpace=wrap;html=1;" vertex="1" parent="1">
          <mxGeometry x="200" y="115" width="140" height="50" as="geometry" />
        </mxCell>
        <mxCell id="jCQcz_GCoctiAkjDmrNC-10" value="" style="edgeStyle=orthogonalEdgeStyle;rounded=0;orthogonalLoop=1;jettySize=auto;html=1;" edge="1" parent="1" source="jCQcz_GCoctiAkjDmrNC-7" target="jCQcz_GCoctiAkjDmrNC-9">
          <mxGeometry relative="1" as="geometry" />
        </mxCell>
        <mxCell id="jCQcz_GCoctiAkjDmrNC-7" value="Mean of pixelvalues are found" style="whiteSpace=wrap;html=1;rounded=0;" vertex="1" parent="1">
          <mxGeometry x="370" y="115" width="120" height="50" as="geometry" />
        </mxCell>
        <mxCell id="jCQcz_GCoctiAkjDmrNC-12" style="edgeStyle=orthogonalEdgeStyle;rounded=0;orthogonalLoop=1;jettySize=auto;html=1;exitX=1;exitY=0.5;exitDx=0;exitDy=0;entryX=0;entryY=0.5;entryDx=0;entryDy=0;" edge="1" parent="1" source="jCQcz_GCoctiAkjDmrNC-9" target="jCQcz_GCoctiAkjDmrNC-11">
          <mxGeometry relative="1" as="geometry">
            <Array as="points">
              <mxPoint x="690" y="140" />
              <mxPoint x="690" y="280" />
            </Array>
          </mxGeometry>
        </mxCell>
        <mxCell id="jCQcz_GCoctiAkjDmrNC-9" value="Mean of enhanced picture is subtracted from the mean of the reference picture" style="whiteSpace=wrap;html=1;rounded=0;" vertex="1" parent="1">
          <mxGeometry x="520" y="105" width="130" height="70" as="geometry" />
        </mxCell>
        <mxCell id="jCQcz_GCoctiAkjDmrNC-11" value="Print outputs" style="shape=parallelogram;perimeter=parallelogramPerimeter;whiteSpace=wrap;html=1;fixedSize=1;" vertex="1" parent="1">
          <mxGeometry x="720" y="260" width="120" height="40" as="geometry" />
        </mxCell>
        <mxCell id="jCQcz_GCoctiAkjDmrNC-18" value="" style="edgeStyle=orthogonalEdgeStyle;rounded=0;orthogonalLoop=1;jettySize=auto;html=1;" edge="1" parent="1" source="jCQcz_GCoctiAkjDmrNC-16" target="jCQcz_GCoctiAkjDmrNC-17">
          <mxGeometry relative="1" as="geometry" />
        </mxCell>
        <mxCell id="jCQcz_GCoctiAkjDmrNC-16" value="Images pixelvalues is converted into gradients using OpenCV&#39;s Sobel function" style="rounded=0;whiteSpace=wrap;html=1;" vertex="1" parent="1">
          <mxGeometry x="200" y="210" width="140" height="60" as="geometry" />
        </mxCell>
        <mxCell id="jCQcz_GCoctiAkjDmrNC-20" value="" style="edgeStyle=orthogonalEdgeStyle;rounded=0;orthogonalLoop=1;jettySize=auto;html=1;" edge="1" parent="1" source="jCQcz_GCoctiAkjDmrNC-17" target="jCQcz_GCoctiAkjDmrNC-19">
          <mxGeometry relative="1" as="geometry" />
        </mxCell>
        <mxCell id="jCQcz_GCoctiAkjDmrNC-17" value="Magnitudes/lengths of gradients are calculated" style="whiteSpace=wrap;html=1;rounded=0;" vertex="1" parent="1">
          <mxGeometry x="370" y="210" width="140" height="60" as="geometry" />
        </mxCell>
        <mxCell id="jCQcz_GCoctiAkjDmrNC-22" style="edgeStyle=orthogonalEdgeStyle;rounded=0;orthogonalLoop=1;jettySize=auto;html=1;exitX=1;exitY=0.5;exitDx=0;exitDy=0;entryX=0;entryY=0.5;entryDx=0;entryDy=0;" edge="1" parent="1" source="jCQcz_GCoctiAkjDmrNC-19" target="jCQcz_GCoctiAkjDmrNC-11">
          <mxGeometry relative="1" as="geometry">
            <Array as="points">
              <mxPoint x="690" y="240" />
              <mxPoint x="690" y="280" />
            </Array>
          </mxGeometry>
        </mxCell>
        <mxCell id="jCQcz_GCoctiAkjDmrNC-19" value="Average gradients &lt;br&gt;are then calculated" style="whiteSpace=wrap;html=1;rounded=0;" vertex="1" parent="1">
          <mxGeometry x="550" y="210" width="120" height="60" as="geometry" />
        </mxCell>
        <mxCell id="jCQcz_GCoctiAkjDmrNC-30" style="edgeStyle=orthogonalEdgeStyle;rounded=0;orthogonalLoop=1;jettySize=auto;html=1;exitX=1;exitY=0.5;exitDx=0;exitDy=0;entryX=0;entryY=0.5;entryDx=0;entryDy=0;" edge="1" parent="1" source="jCQcz_GCoctiAkjDmrNC-26" target="jCQcz_GCoctiAkjDmrNC-11">
          <mxGeometry relative="1" as="geometry">
            <Array as="points">
              <mxPoint x="690" y="340" />
              <mxPoint x="690" y="280" />
            </Array>
          </mxGeometry>
        </mxCell>
        <mxCell id="jCQcz_GCoctiAkjDmrNC-26" value="Run the SSIM function from PIQ on images" style="rounded=0;whiteSpace=wrap;html=1;" vertex="1" parent="1">
          <mxGeometry x="200" y="310" width="120" height="60" as="geometry" />
        </mxCell>
        <mxCell id="jCQcz_GCoctiAkjDmrNC-33" value="" style="edgeStyle=orthogonalEdgeStyle;rounded=0;orthogonalLoop=1;jettySize=auto;html=1;" edge="1" parent="1" source="jCQcz_GCoctiAkjDmrNC-31" target="jCQcz_GCoctiAkjDmrNC-32">
          <mxGeometry relative="1" as="geometry" />
        </mxCell>
        <mxCell id="jCQcz_GCoctiAkjDmrNC-31" value="Colour patches of the colour palettes are found for enhances, reference and colour palette reference" style="rounded=0;whiteSpace=wrap;html=1;" vertex="1" parent="1">
          <mxGeometry x="200" y="410" width="140" height="80" as="geometry" />
        </mxCell>
        <mxCell id="jCQcz_GCoctiAkjDmrNC-35" value="" style="edgeStyle=orthogonalEdgeStyle;rounded=0;orthogonalLoop=1;jettySize=auto;html=1;" edge="1" parent="1" source="jCQcz_GCoctiAkjDmrNC-32" target="jCQcz_GCoctiAkjDmrNC-34">
          <mxGeometry relative="1" as="geometry" />
        </mxCell>
        <mxCell id="jCQcz_GCoctiAkjDmrNC-32" value="Colour patches of the enhances and reference images are then substracted from the reference colour palette." style="whiteSpace=wrap;html=1;rounded=0;" vertex="1" parent="1">
          <mxGeometry x="370" y="410" width="150" height="80" as="geometry" />
        </mxCell>
        <mxCell id="jCQcz_GCoctiAkjDmrNC-36" style="edgeStyle=orthogonalEdgeStyle;rounded=0;orthogonalLoop=1;jettySize=auto;html=1;exitX=1;exitY=0.5;exitDx=0;exitDy=0;entryX=0;entryY=0.5;entryDx=0;entryDy=0;" edge="1" parent="1" source="jCQcz_GCoctiAkjDmrNC-34" target="jCQcz_GCoctiAkjDmrNC-11">
          <mxGeometry relative="1" as="geometry">
            <Array as="points">
              <mxPoint x="690" y="450" />
              <mxPoint x="690" y="280" />
            </Array>
          </mxGeometry>
        </mxCell>
        <mxCell id="jCQcz_GCoctiAkjDmrNC-34" value="Mean of the found differences for the&amp;nbsp; enhanced picture and reference(original) picture is found" style="whiteSpace=wrap;html=1;rounded=0;" vertex="1" parent="1">
          <mxGeometry x="550" y="410" width="120" height="80" as="geometry" />
        </mxCell>
        <mxCell id="jCQcz_GCoctiAkjDmrNC-42" style="edgeStyle=orthogonalEdgeStyle;rounded=0;orthogonalLoop=1;jettySize=auto;html=1;exitX=1;exitY=0.5;exitDx=0;exitDy=0;entryX=0.5;entryY=1;entryDx=0;entryDy=0;" edge="1" parent="1" source="jCQcz_GCoctiAkjDmrNC-41" target="jCQcz_GCoctiAkjDmrNC-31">
          <mxGeometry relative="1" as="geometry">
            <mxPoint x="230" y="520" as="targetPoint" />
          </mxGeometry>
        </mxCell>
        <mxCell id="jCQcz_GCoctiAkjDmrNC-41" value="Reference &lt;br&gt;colour palette" style="shape=parallelogram;perimeter=parallelogramPerimeter;whiteSpace=wrap;html=1;fixedSize=1;" vertex="1" parent="1">
          <mxGeometry x="30" y="500" width="120" height="40" as="geometry" />
        </mxCell>
        <mxCell id="jCQcz_GCoctiAkjDmrNC-44" value="&lt;span style=&quot;font-size: 16px;&quot;&gt;&lt;b&gt;MBE&lt;/b&gt;&lt;/span&gt;" style="text;html=1;align=center;verticalAlign=middle;whiteSpace=wrap;rounded=0;" vertex="1" parent="1">
          <mxGeometry x="200" y="85" width="60" height="30" as="geometry" />
        </mxCell>
        <mxCell id="jCQcz_GCoctiAkjDmrNC-45" value="&lt;font style=&quot;font-size: 16px;&quot;&gt;&lt;b&gt;AG&lt;/b&gt;&lt;/font&gt;" style="text;html=1;align=center;verticalAlign=middle;whiteSpace=wrap;rounded=0;" vertex="1" parent="1">
          <mxGeometry x="200" y="180" width="50" height="30" as="geometry" />
        </mxCell>
        <mxCell id="jCQcz_GCoctiAkjDmrNC-46" value="&lt;font style=&quot;font-size: 16px;&quot;&gt;&lt;b&gt;SSIM&lt;/b&gt;&lt;/font&gt;" style="text;html=1;align=center;verticalAlign=middle;whiteSpace=wrap;rounded=0;" vertex="1" parent="1">
          <mxGeometry x="200" y="280" width="60" height="30" as="geometry" />
        </mxCell>
        <mxCell id="jCQcz_GCoctiAkjDmrNC-47" value="&lt;font style=&quot;font-size: 16px;&quot;&gt;&lt;b&gt;Colour calibration test&lt;/b&gt;&lt;/font&gt;" style="text;html=1;align=center;verticalAlign=middle;whiteSpace=wrap;rounded=0;" vertex="1" parent="1">
          <mxGeometry x="200" y="380" width="190" height="30" as="geometry" />
        </mxCell>
      </root>
    </mxGraphModel>
  </diagram>
</mxfile>
